<svg xmlns="http://www.w3.org/2000/svg" viewBox="0 0 512 512" fill="none">
  <!-- Background gradient circle -->
  <defs>
    <linearGradient id="bg-gradient" x1="0%" y1="0%" x2="100%" y2="100%">
      <stop offset="0%" style="stop-color:#7C3AED;stop-opacity:1" />
      <stop offset="100%" style="stop-color:#10B981;stop-opacity:1" />
    </linearGradient>
    <linearGradient id="lock-gradient" x1="0%" y1="0%" x2="0%" y2="100%">
      <stop offset="0%" style="stop-color:#10B981;stop-opacity:1" />
      <stop offset="100%" style="stop-color:#059669;stop-opacity:1" />
    </linearGradient>
  </defs>

  <!-- Background circle -->
  <circle cx="256" cy="256" r="240" fill="url(#bg-gradient)" opacity="0.95"/>

  <!-- Price chart lines (behind lock) -->
  <g opacity="0.4" stroke="#ffffff" stroke-width="8" fill="none" stroke-linecap="round" stroke-linejoin="round">
    <path d="M 100 320 L 150 280 L 200 300 L 250 240 L 300 260 L 350 200 L 400 180" />
    <circle cx="150" cy="280" r="6" fill="#ffffff"/>
    <circle cx="200" cy="300" r="6" fill="#ffffff"/>
    <circle cx="250" cy="240" r="6" fill="#ffffff"/>
    <circle cx="300" cy="260" r="6" fill="#ffffff"/>
    <circle cx="350" cy="200" r="6" fill="#ffffff"/>
  </g>

  <!-- Lock body -->
  <rect x="196" y="256" width="120" height="140" rx="12" fill="url(#lock-gradient)" stroke="#ffffff" stroke-width="8"/>

  <!-- Lock shackle -->
  <path d="M 216 256 L 216 200 A 40 40 0 0 1 296 200 L 296 256"
        fill="none" stroke="url(#lock-gradient)" stroke-width="12" stroke-linecap="round"/>

  <!-- Keyhole -->
  <g>
    <circle cx="256" cy="310" r="18" fill="#ffffff" opacity="0.9"/>
    <rect x="248" y="310" width="16" height="40" rx="4" fill="#ffffff" opacity="0.9"/>
  </g>

  <!-- Sparkle effects -->
  <g fill="#ffffff" opacity="0.8">
    <circle cx="140" cy="140" r="4"/>
    <circle cx="180" cy="120" r="3"/>
    <circle cx="360" cy="150" r="4"/>
    <circle cx="380" cy="180" r="3"/>
    <circle cx="420" cy="300" r="4"/>
    <circle cx="390" cy="360" r="3"/>
  </g>
</svg>
